<svg width="263" height="139" viewBox="0 0 263 139" fill="none" xmlns="http://www.w3.org/2000/svg">
<path d="M263 0H0V139H263V0Z" fill="#393E42"/>
<path d="M47.5859 105.486C47.9261 105.486 48.243 105.504 48.5366 105.54C48.8302 105.572 49.1113 105.62 49.3799 105.685C49.6484 105.745 49.9098 105.821 50.1641 105.91C50.4183 105.996 50.6743 106.093 50.9321 106.2V107.017C50.728 106.888 50.5096 106.766 50.2769 106.651C50.0477 106.537 49.7988 106.437 49.5303 106.351C49.2653 106.265 48.9788 106.197 48.6709 106.146C48.3665 106.096 48.0389 106.071 47.688 106.071C46.9718 106.071 46.347 106.146 45.8135 106.297C45.2799 106.447 44.8359 106.662 44.4814 106.941C44.127 107.221 43.8602 107.561 43.6812 107.962C43.5057 108.363 43.418 108.814 43.418 109.315C43.418 109.785 43.5039 110.218 43.6758 110.615C43.8512 111.009 44.1144 111.349 44.4653 111.636C44.8198 111.922 45.262 112.146 45.792 112.307C46.3219 112.468 46.9432 112.549 47.6558 112.549C47.9351 112.549 48.2108 112.538 48.4829 112.517C48.7586 112.495 49.0182 112.468 49.2617 112.436C49.5052 112.4 49.7272 112.363 49.9277 112.323C50.1283 112.28 50.2983 112.237 50.438 112.194V109.955H47.4355V109.326H51.1094V112.57C50.8444 112.663 50.5758 112.746 50.3037 112.817C50.0352 112.889 49.7559 112.95 49.4658 113C49.1794 113.047 48.8804 113.082 48.5688 113.107C48.2609 113.132 47.9368 113.145 47.5967 113.145C46.902 113.145 46.2575 113.068 45.6631 112.914C45.0687 112.757 44.5531 112.52 44.1162 112.205C43.6829 111.886 43.3428 111.487 43.0957 111.007C42.8486 110.528 42.7251 109.964 42.7251 109.315C42.7251 108.882 42.7824 108.488 42.897 108.134C43.0116 107.776 43.1727 107.455 43.3804 107.172C43.5916 106.886 43.8441 106.637 44.1377 106.426C44.4349 106.215 44.7625 106.041 45.1206 105.905C45.4823 105.765 45.8708 105.661 46.2861 105.593C46.7015 105.522 47.1348 105.486 47.5859 105.486ZM53.9023 105.62V110.492C53.8988 110.903 53.9507 111.242 54.0581 111.507C54.1655 111.772 54.3195 111.981 54.52 112.135C54.7241 112.286 54.9694 112.391 55.2559 112.452C55.5459 112.509 55.8717 112.538 56.2334 112.538C56.6523 112.538 57.0623 112.488 57.4634 112.388C57.8644 112.284 58.2422 112.155 58.5967 112.001C58.9512 111.843 59.2752 111.67 59.5688 111.48C59.866 111.29 60.1185 111.108 60.3262 110.932V105.62H61.0083V113H60.3262V111.7C60.0755 111.861 59.8016 112.03 59.5044 112.205C59.2072 112.377 58.8849 112.536 58.5376 112.683C58.1938 112.826 57.825 112.944 57.4312 113.038C57.0373 113.131 56.6201 113.177 56.1797 113.177C55.682 113.177 55.2469 113.115 54.8745 112.989C54.5057 112.864 54.1978 112.688 53.9507 112.463C53.7072 112.237 53.5246 111.971 53.4028 111.663C53.2811 111.351 53.2202 111.009 53.2202 110.637V105.62H53.9023ZM63.5005 113V105.62H64.1719V113H63.5005ZM74.7153 109.305C74.7153 109.777 74.6652 110.198 74.5649 110.567C74.4683 110.932 74.3304 111.251 74.1514 111.523C73.9723 111.795 73.7539 112.026 73.4961 112.216C73.2419 112.406 72.9572 112.558 72.6421 112.672C72.3306 112.787 71.9904 112.871 71.6216 112.925C71.2563 112.975 70.8714 113 70.4668 113H66.6587V105.62H70.4561C71.0612 105.62 71.6234 105.679 72.1426 105.797C72.6618 105.916 73.1112 106.118 73.4907 106.404C73.8739 106.687 74.1729 107.065 74.3877 107.538C74.6061 108.01 74.7153 108.599 74.7153 109.305ZM74.0225 109.305C74.0225 108.904 73.9831 108.549 73.9043 108.241C73.8255 107.933 73.7127 107.667 73.5659 107.441C73.4191 107.212 73.2401 107.02 73.0288 106.866C72.8175 106.712 72.5794 106.589 72.3145 106.496C72.0495 106.399 71.7612 106.331 71.4497 106.292C71.1382 106.252 70.807 106.232 70.4561 106.232H67.3301V112.382H70.4561C70.9824 112.382 71.464 112.336 71.9009 112.243C72.3377 112.146 72.7119 111.981 73.0234 111.749C73.3385 111.512 73.5838 111.197 73.7593 110.803C73.9347 110.406 74.0225 109.906 74.0225 109.305ZM76.6704 113V105.62H77.3418V113H76.6704ZM86.9722 113V108.128C86.9722 107.72 86.9167 107.385 86.8057 107.124C86.6982 106.859 86.5425 106.65 86.3384 106.496C86.1379 106.342 85.8926 106.234 85.6025 106.173C85.3125 106.112 84.9867 106.082 84.625 106.082C84.2061 106.082 83.7943 106.134 83.3896 106.238C82.9886 106.338 82.609 106.467 82.251 106.625C81.8929 106.778 81.5635 106.95 81.2627 107.14C80.9619 107.33 80.7077 107.513 80.5 107.688V113H79.8286V105.62H80.5V106.915C80.7507 106.757 81.0264 106.592 81.3271 106.42C81.6315 106.245 81.9574 106.086 82.3047 105.942C82.6556 105.796 83.0298 105.676 83.4272 105.583C83.8247 105.489 84.2437 105.443 84.6841 105.443C85.1818 105.443 85.6151 105.504 85.9839 105.625C86.3563 105.744 86.6642 105.914 86.9077 106.136C87.1548 106.354 87.3392 106.621 87.4609 106.936C87.5827 107.248 87.6436 107.597 87.6436 107.983V113H86.9722ZM94.4434 105.486C94.7835 105.486 95.1004 105.504 95.394 105.54C95.6877 105.572 95.9688 105.62 96.2373 105.685C96.5059 105.745 96.7673 105.821 97.0215 105.91C97.2757 105.996 97.5317 106.093 97.7896 106.2V107.017C97.5854 106.888 97.367 106.766 97.1343 106.651C96.9051 106.537 96.6562 106.437 96.3877 106.351C96.1227 106.265 95.8363 106.197 95.5283 106.146C95.224 106.096 94.8963 106.071 94.5454 106.071C93.8293 106.071 93.2044 106.146 92.6709 106.297C92.1374 106.447 91.6934 106.662 91.3389 106.941C90.9844 107.221 90.7176 107.561 90.5386 107.962C90.3631 108.363 90.2754 108.814 90.2754 109.315C90.2754 109.785 90.3613 110.218 90.5332 110.615C90.7087 111.009 90.9718 111.349 91.3228 111.636C91.6772 111.922 92.1195 112.146 92.6494 112.307C93.1794 112.468 93.8006 112.549 94.5132 112.549C94.7925 112.549 95.0682 112.538 95.3403 112.517C95.616 112.495 95.8757 112.468 96.1191 112.436C96.3626 112.4 96.5846 112.363 96.7852 112.323C96.9857 112.28 97.1558 112.237 97.2954 112.194V109.955H94.293V109.326H97.9668V112.57C97.7018 112.663 97.4333 112.746 97.1611 112.817C96.8926 112.889 96.6133 112.95 96.3232 113C96.0368 113.047 95.7378 113.082 95.4263 113.107C95.1183 113.132 94.7943 113.145 94.4541 113.145C93.7594 113.145 93.1149 113.068 92.5205 112.914C91.9261 112.757 91.4105 112.52 90.9736 112.205C90.5404 111.886 90.2002 111.487 89.9531 111.007C89.7061 110.528 89.5825 109.964 89.5825 109.315C89.5825 108.882 89.6398 108.488 89.7544 108.134C89.869 107.776 90.0301 107.455 90.2378 107.172C90.4491 106.886 90.7015 106.637 90.9951 106.426C91.2923 106.215 91.62 106.041 91.978 105.905C92.3397 105.765 92.7282 105.661 93.1436 105.593C93.5589 105.522 93.9922 105.486 94.4434 105.486ZM112.061 109.514C112.014 109.937 111.89 110.356 111.69 110.771C111.493 111.186 111.212 111.562 110.847 111.899C110.958 111.978 111.069 112.055 111.18 112.13C111.294 112.205 111.416 112.286 111.545 112.372C111.674 112.454 111.817 112.547 111.975 112.651C112.132 112.751 112.315 112.868 112.522 113H111.54C111.328 112.875 111.128 112.749 110.938 112.624C110.752 112.499 110.564 112.375 110.374 112.253C109.994 112.518 109.536 112.733 108.999 112.898C108.465 113.063 107.853 113.145 107.162 113.145C106.732 113.145 106.317 113.106 105.916 113.027C105.519 112.948 105.166 112.826 104.858 112.662C104.554 112.497 104.31 112.287 104.127 112.033C103.945 111.775 103.854 111.471 103.854 111.12C103.854 110.877 103.909 110.649 104.02 110.438C104.135 110.227 104.287 110.03 104.477 109.847C104.67 109.665 104.892 109.494 105.143 109.337C105.397 109.176 105.664 109.025 105.943 108.886C105.617 108.549 105.375 108.238 105.218 107.951C105.064 107.665 104.987 107.385 104.987 107.113C104.987 106.841 105.053 106.603 105.186 106.399C105.318 106.195 105.497 106.025 105.723 105.889C105.952 105.753 106.219 105.652 106.523 105.588C106.831 105.52 107.159 105.486 107.506 105.486C107.807 105.486 108.086 105.518 108.344 105.583C108.605 105.643 108.833 105.731 109.026 105.846C109.219 105.957 109.371 106.095 109.482 106.259C109.593 106.42 109.649 106.599 109.649 106.796C109.649 107.04 109.568 107.262 109.407 107.462C109.25 107.663 109.042 107.853 108.784 108.032C108.526 108.207 108.235 108.375 107.909 108.537C107.583 108.698 107.253 108.859 106.92 109.02C107.3 109.357 107.771 109.734 108.333 110.153C108.899 110.569 109.576 111.041 110.363 111.571C110.686 111.288 110.931 110.97 111.099 110.615C111.271 110.257 111.375 109.89 111.411 109.514H112.061ZM107.286 112.581C107.83 112.581 108.319 112.522 108.752 112.404C109.185 112.286 109.565 112.125 109.891 111.92C109.11 111.408 108.426 110.938 107.839 110.508C107.255 110.078 106.759 109.674 106.351 109.294C106.244 109.348 106.124 109.41 105.991 109.482C105.859 109.55 105.724 109.627 105.588 109.713C105.452 109.795 105.32 109.887 105.191 109.987C105.062 110.087 104.947 110.196 104.847 110.314C104.747 110.433 104.666 110.56 104.605 110.696C104.545 110.828 104.514 110.97 104.514 111.12C104.514 111.306 104.566 111.487 104.67 111.663C104.777 111.838 104.942 111.994 105.164 112.13C105.39 112.266 105.676 112.375 106.023 112.458C106.374 112.54 106.795 112.581 107.286 112.581ZM105.647 107.113C105.647 107.335 105.715 107.566 105.852 107.806C105.991 108.046 106.211 108.318 106.512 108.623C106.827 108.472 107.133 108.329 107.431 108.193C107.728 108.053 107.991 107.912 108.22 107.769C108.453 107.625 108.639 107.479 108.779 107.328C108.918 107.174 108.988 107.011 108.988 106.839C108.988 106.746 108.965 106.653 108.918 106.56C108.872 106.463 108.793 106.377 108.682 106.302C108.571 106.227 108.423 106.166 108.236 106.12C108.05 106.073 107.817 106.05 107.538 106.05C107.262 106.05 107.008 106.071 106.775 106.114C106.546 106.154 106.347 106.216 106.179 106.302C106.011 106.388 105.88 106.499 105.787 106.635C105.694 106.768 105.647 106.927 105.647 107.113ZM126.144 112.415C125.886 112.522 125.63 112.62 125.375 112.71C125.125 112.799 124.863 112.876 124.591 112.941C124.319 113.005 124.033 113.056 123.732 113.091C123.431 113.127 123.104 113.145 122.749 113.145C122.312 113.145 121.891 113.109 121.487 113.038C121.086 112.966 120.712 112.859 120.364 112.715C120.017 112.572 119.702 112.395 119.419 112.184C119.136 111.969 118.893 111.72 118.688 111.437C118.488 111.154 118.332 110.835 118.221 110.481C118.114 110.126 118.06 109.738 118.06 109.315C118.06 108.893 118.114 108.504 118.221 108.15C118.332 107.795 118.488 107.477 118.688 107.194C118.893 106.911 119.136 106.664 119.419 106.453C119.702 106.238 120.017 106.059 120.364 105.916C120.712 105.772 121.086 105.665 121.487 105.593C121.888 105.522 122.309 105.486 122.749 105.486C123.104 105.486 123.431 105.504 123.732 105.54C124.033 105.575 124.319 105.625 124.591 105.69C124.863 105.754 125.125 105.831 125.375 105.921C125.63 106.007 125.886 106.104 126.144 106.211V107.017C125.939 106.888 125.721 106.766 125.488 106.651C125.256 106.537 125.003 106.437 124.731 106.351C124.462 106.265 124.174 106.197 123.866 106.146C123.558 106.096 123.229 106.071 122.878 106.071C122.169 106.071 121.555 106.148 121.036 106.302C120.516 106.456 120.087 106.675 119.747 106.958C119.41 107.237 119.159 107.577 118.995 107.978C118.833 108.375 118.753 108.821 118.753 109.315C118.753 109.81 118.833 110.255 118.995 110.653C119.159 111.05 119.41 111.39 119.747 111.673C120.087 111.953 120.516 112.169 121.036 112.323C121.555 112.474 122.169 112.549 122.878 112.549C123.229 112.549 123.56 112.524 123.872 112.474C124.187 112.424 124.48 112.355 124.752 112.27C125.028 112.184 125.281 112.085 125.51 111.974C125.743 111.86 125.954 111.74 126.144 111.614V112.415ZM136.993 109.315C136.993 109.978 136.873 110.551 136.633 111.034C136.393 111.514 136.064 111.911 135.645 112.227C135.226 112.538 134.732 112.769 134.163 112.919C133.593 113.07 132.979 113.145 132.32 113.145C131.658 113.145 131.04 113.07 130.467 112.919C129.894 112.769 129.397 112.538 128.974 112.227C128.552 111.911 128.22 111.514 127.98 111.034C127.741 110.551 127.621 109.978 127.621 109.315C127.621 108.875 127.676 108.476 127.787 108.118C127.898 107.756 128.054 107.434 128.254 107.151C128.455 106.864 128.697 106.617 128.979 106.41C129.266 106.202 129.583 106.03 129.93 105.894C130.281 105.754 130.657 105.652 131.058 105.588C131.459 105.52 131.88 105.486 132.32 105.486C132.979 105.486 133.593 105.561 134.163 105.711C134.732 105.862 135.226 106.095 135.645 106.41C136.064 106.721 136.393 107.119 136.633 107.602C136.873 108.082 136.993 108.653 136.993 109.315ZM136.3 109.315C136.3 108.793 136.214 108.331 136.042 107.93C135.874 107.529 135.624 107.192 135.291 106.92C134.958 106.644 134.542 106.437 134.044 106.297C133.55 106.154 132.976 106.082 132.32 106.082C131.665 106.082 131.087 106.154 130.585 106.297C130.088 106.44 129.671 106.65 129.334 106.925C128.997 107.197 128.743 107.536 128.571 107.94C128.399 108.341 128.313 108.8 128.313 109.315C128.313 109.838 128.399 110.3 128.571 110.701C128.743 111.102 128.997 111.441 129.334 111.716C129.671 111.988 130.088 112.196 130.585 112.339C131.087 112.479 131.665 112.549 132.32 112.549C132.976 112.549 133.55 112.479 134.044 112.339C134.542 112.196 134.958 111.988 135.291 111.716C135.624 111.441 135.874 111.102 136.042 110.701C136.214 110.3 136.3 109.838 136.3 109.315ZM145.646 113V112.184C145.388 112.323 145.095 112.452 144.765 112.57C144.439 112.688 144.094 112.791 143.729 112.876C143.367 112.962 142.994 113.029 142.611 113.075C142.228 113.122 141.852 113.145 141.483 113.145C141.004 113.145 140.572 113.102 140.189 113.016C139.809 112.93 139.487 112.803 139.222 112.635C138.957 112.463 138.753 112.252 138.61 112.001C138.467 111.747 138.395 111.453 138.395 111.12C138.395 110.791 138.477 110.501 138.642 110.25C138.81 109.996 139.049 109.776 139.356 109.589C139.664 109.4 140.035 109.24 140.468 109.111C140.905 108.979 141.392 108.868 141.929 108.778C142.466 108.685 143.046 108.61 143.669 108.553C144.296 108.492 144.955 108.442 145.646 108.402V107.838C145.646 107.609 145.603 107.407 145.517 107.231C145.431 107.056 145.311 106.904 145.157 106.775C145.003 106.642 144.822 106.533 144.615 106.447C144.407 106.358 144.181 106.286 143.938 106.232C143.698 106.179 143.444 106.141 143.175 106.12C142.91 106.095 142.644 106.082 142.375 106.082C142.013 106.082 141.684 106.1 141.387 106.136C141.09 106.172 140.812 106.222 140.554 106.286C140.296 106.347 140.049 106.419 139.813 106.501C139.577 106.583 139.339 106.671 139.099 106.764V105.98C139.596 105.847 140.126 105.733 140.688 105.636C141.254 105.536 141.854 105.486 142.488 105.486C143.025 105.486 143.526 105.532 143.992 105.625C144.457 105.715 144.862 105.86 145.206 106.061C145.549 106.261 145.82 106.521 146.017 106.839C146.214 107.154 146.312 107.539 146.312 107.994V113H145.646ZM145.646 108.999C144.475 109.063 143.474 109.154 142.644 109.272C141.816 109.391 141.14 109.536 140.613 109.708C140.087 109.879 139.7 110.08 139.453 110.309C139.21 110.538 139.088 110.798 139.088 111.088C139.088 111.324 139.147 111.534 139.265 111.716C139.387 111.899 139.561 112.053 139.786 112.178C140.012 112.3 140.286 112.393 140.608 112.458C140.93 112.518 141.292 112.549 141.693 112.549C141.929 112.549 142.173 112.536 142.423 112.511C142.678 112.483 142.93 112.445 143.181 112.398C143.431 112.348 143.678 112.291 143.922 112.227C144.165 112.159 144.395 112.085 144.609 112.006C144.824 111.928 145.019 111.843 145.195 111.754C145.374 111.664 145.524 111.573 145.646 111.48V108.999ZM156.308 112.415C156.05 112.522 155.794 112.62 155.54 112.71C155.289 112.799 155.028 112.876 154.755 112.941C154.483 113.005 154.197 113.056 153.896 113.091C153.595 113.127 153.268 113.145 152.913 113.145C152.476 113.145 152.056 113.109 151.651 113.038C151.25 112.966 150.876 112.859 150.528 112.715C150.181 112.572 149.866 112.395 149.583 112.184C149.3 111.969 149.057 111.72 148.853 111.437C148.652 111.154 148.496 110.835 148.385 110.481C148.278 110.126 148.224 109.738 148.224 109.315C148.224 108.893 148.278 108.504 148.385 108.15C148.496 107.795 148.652 107.477 148.853 107.194C149.057 106.911 149.3 106.664 149.583 106.453C149.866 106.238 150.181 106.059 150.528 105.916C150.876 105.772 151.25 105.665 151.651 105.593C152.052 105.522 152.473 105.486 152.913 105.486C153.268 105.486 153.595 105.504 153.896 105.54C154.197 105.575 154.483 105.625 154.755 105.69C155.028 105.754 155.289 105.831 155.54 105.921C155.794 106.007 156.05 106.104 156.308 106.211V107.017C156.104 106.888 155.885 106.766 155.652 106.651C155.42 106.537 155.167 106.437 154.895 106.351C154.626 106.265 154.338 106.197 154.03 106.146C153.722 106.096 153.393 106.071 153.042 106.071C152.333 106.071 151.719 106.148 151.2 106.302C150.681 106.456 150.251 106.675 149.911 106.958C149.574 107.237 149.323 107.577 149.159 107.978C148.998 108.375 148.917 108.821 148.917 109.315C148.917 109.81 148.998 110.255 149.159 110.653C149.323 111.05 149.574 111.39 149.911 111.673C150.251 111.953 150.681 112.169 151.2 112.323C151.719 112.474 152.333 112.549 153.042 112.549C153.393 112.549 153.724 112.524 154.036 112.474C154.351 112.424 154.644 112.355 154.917 112.27C155.192 112.184 155.445 112.085 155.674 111.974C155.907 111.86 156.118 111.74 156.308 111.614V112.415ZM165.583 113V109.423H158.972V113H158.3V105.62H158.972V108.8H165.583V105.62H166.255V113H165.583ZM168.742 113V105.62H169.413V113H168.742ZM179.043 113V108.128C179.043 107.72 178.988 107.385 178.877 107.124C178.77 106.859 178.614 106.65 178.41 106.496C178.209 106.342 177.964 106.234 177.674 106.173C177.384 106.112 177.058 106.082 176.696 106.082C176.277 106.082 175.866 106.134 175.461 106.238C175.06 106.338 174.68 106.467 174.322 106.625C173.964 106.778 173.635 106.95 173.334 107.14C173.033 107.33 172.779 107.513 172.571 107.688V113H171.9V105.62H172.571V106.915C172.822 106.757 173.098 106.592 173.398 106.42C173.703 106.245 174.029 106.086 174.376 105.942C174.727 105.796 175.101 105.676 175.499 105.583C175.896 105.489 176.315 105.443 176.755 105.443C177.253 105.443 177.686 105.504 178.055 105.625C178.428 105.744 178.736 105.914 178.979 106.136C179.226 106.354 179.41 106.621 179.532 106.936C179.654 107.248 179.715 107.597 179.715 107.983V113H179.043ZM186.515 105.486C186.855 105.486 187.172 105.504 187.465 105.54C187.759 105.572 188.04 105.62 188.309 105.685C188.577 105.745 188.839 105.821 189.093 105.91C189.347 105.996 189.603 106.093 189.861 106.2V107.017C189.657 106.888 189.438 106.766 189.206 106.651C188.976 106.537 188.728 106.437 188.459 106.351C188.194 106.265 187.908 106.197 187.6 106.146C187.295 106.096 186.968 106.071 186.617 106.071C185.901 106.071 185.276 106.146 184.742 106.297C184.209 106.447 183.765 106.662 183.41 106.941C183.056 107.221 182.789 107.561 182.61 107.962C182.434 108.363 182.347 108.814 182.347 109.315C182.347 109.785 182.433 110.218 182.604 110.615C182.78 111.009 183.043 111.349 183.394 111.636C183.749 111.922 184.191 112.146 184.721 112.307C185.251 112.468 185.872 112.549 186.584 112.549C186.864 112.549 187.139 112.538 187.412 112.517C187.687 112.495 187.947 112.468 188.19 112.436C188.434 112.4 188.656 112.363 188.856 112.323C189.057 112.28 189.227 112.237 189.367 112.194V109.955H186.364V109.326H190.038V112.57C189.773 112.663 189.505 112.746 189.232 112.817C188.964 112.889 188.685 112.95 188.395 113C188.108 113.047 187.809 113.082 187.498 113.107C187.19 113.132 186.866 113.145 186.525 113.145C185.831 113.145 185.186 113.068 184.592 112.914C183.997 112.757 183.482 112.52 183.045 112.205C182.612 111.886 182.271 111.487 182.024 111.007C181.777 110.528 181.654 109.964 181.654 109.315C181.654 108.882 181.711 108.488 181.826 108.134C181.94 107.776 182.101 107.455 182.309 107.172C182.52 106.886 182.773 106.637 183.066 106.426C183.364 106.215 183.691 106.041 184.049 105.905C184.411 105.765 184.799 105.661 185.215 105.593C185.63 105.522 186.063 105.486 186.515 105.486Z" fill="white"/>
<path d="M58.9888 31.4185C58.6206 31.2391 58.1958 31.0503 57.7144 30.8521C57.2329 30.6444 56.6807 30.4603 56.0576 30.2998C55.444 30.1393 54.7502 30.0072 53.9761 29.9033C53.202 29.79 52.3429 29.7334 51.3989 29.7334C50.2567 29.7334 49.2371 29.7995 48.3403 29.9316C47.453 30.0638 46.6978 30.2715 46.0747 30.5547C45.4611 30.8285 44.9891 31.1777 44.6587 31.6025C44.3377 32.0273 44.1772 32.5324 44.1772 33.1177C44.1772 33.6086 44.3283 34.0381 44.6304 34.4062C44.9419 34.7744 45.3573 35.1001 45.8765 35.3833C46.4051 35.6665 47.0187 35.9261 47.7173 36.1621C48.4253 36.3887 49.1711 36.6058 49.9546 36.8135C50.7476 37.0117 51.5594 37.2147 52.3901 37.4224C53.2303 37.63 54.0422 37.8566 54.8257 38.1021C55.6187 38.3381 56.3644 38.6071 57.063 38.9092C57.771 39.2018 58.3846 39.5464 58.9038 39.9429C59.4325 40.3394 59.8478 40.7925 60.1499 41.3022C60.4614 41.812 60.6172 42.402 60.6172 43.0723C60.6172 43.7992 60.4803 44.4364 60.2065 44.9839C59.9328 45.522 59.5599 45.9893 59.0879 46.3857C58.6253 46.7728 58.0778 47.0985 57.4453 47.3628C56.8223 47.6177 56.152 47.8206 55.4346 47.9717C54.7266 48.1227 53.9902 48.2266 53.2256 48.2832C52.4704 48.3493 51.7246 48.3823 50.9883 48.3823C49.2985 48.3823 47.7645 48.2596 46.3862 48.0142C45.0174 47.7687 43.71 47.4336 42.4639 47.0088V44.8423C43.7477 45.6069 45.1024 46.1309 46.5278 46.4141C47.9627 46.6973 49.4684 46.8389 51.0449 46.8389C52.1589 46.8389 53.1878 46.7728 54.1318 46.6406C55.0758 46.5085 55.8924 46.3008 56.5815 46.0176C57.2707 45.7249 57.804 45.3473 58.1816 44.8848C58.5687 44.4222 58.7622 43.8558 58.7622 43.1855C58.7622 42.6475 58.6064 42.1755 58.2949 41.7695C57.9928 41.3636 57.5775 41.0096 57.0488 40.7075C56.5296 40.396 55.916 40.1222 55.208 39.8862C54.5094 39.6502 53.7684 39.4331 52.9849 39.2349C52.2013 39.0272 51.3895 38.8289 50.5493 38.6401C49.7186 38.4419 48.9115 38.2295 48.1279 38.0029C47.3444 37.7764 46.5986 37.5215 45.8906 37.2383C45.1921 36.9551 44.5785 36.6247 44.0498 36.2471C43.5306 35.86 43.1152 35.4163 42.8037 34.916C42.5016 34.4157 42.3506 33.8351 42.3506 33.1743C42.3506 32.5229 42.4733 31.9471 42.7188 31.4468C42.9642 30.937 43.2993 30.498 43.7241 30.1299C44.1584 29.7617 44.6634 29.4549 45.2393 29.2095C45.8151 28.9546 46.4287 28.7563 47.0801 28.6147C47.7409 28.4637 48.4253 28.3551 49.1333 28.2891C49.8413 28.223 50.5399 28.1899 51.229 28.1899C51.9842 28.1899 52.6969 28.223 53.3672 28.2891C54.0469 28.3551 54.6982 28.4448 55.3213 28.5581C55.9538 28.6619 56.5674 28.7847 57.1621 28.9263C57.7663 29.0679 58.3752 29.2189 58.9888 29.3794V31.4185ZM73.9844 30.1582V48H72.2285V30.1582H63.3784V28.5439H82.8345V30.1582H73.9844ZM101.073 30.0449C100.799 29.96 100.417 29.8703 99.9258 29.7759C99.4443 29.672 98.8213 29.6201 98.0566 29.6201C96.9993 29.6201 96.0034 29.7523 95.0688 30.0166C94.1437 30.2715 93.2799 30.6208 92.4775 31.0645C91.6846 31.5081 90.9482 32.0273 90.2686 32.6221C89.5889 33.2074 88.9753 33.8304 88.4277 34.4912V48H86.6577V28.5439H88.4277V32.5088C89.0602 31.8574 89.7446 31.258 90.481 30.7104C91.2267 30.1629 92.0103 29.6956 92.8315 29.3086C93.6528 28.9121 94.5119 28.6053 95.4087 28.3882C96.3149 28.1616 97.2495 28.0483 98.2124 28.0483C98.5428 28.0483 98.8402 28.0578 99.1045 28.0767C99.3688 28.0861 99.6095 28.105 99.8267 28.1333C100.053 28.1522 100.266 28.1758 100.464 28.2041C100.662 28.2324 100.865 28.2655 101.073 28.3032V30.0449ZM123.97 46.9805C123.177 47.2259 122.44 47.4383 121.761 47.6177C121.081 47.7876 120.411 47.9245 119.75 48.0283C119.089 48.1416 118.414 48.2218 117.725 48.269C117.045 48.3257 116.295 48.354 115.474 48.354C113.567 48.354 111.844 48.1227 110.305 47.6602C108.766 47.1976 107.454 46.5368 106.369 45.6777C105.292 44.8092 104.462 43.7614 103.876 42.5342C103.291 41.307 102.999 39.9287 102.999 38.3994C102.999 36.9173 103.277 35.5579 103.834 34.3213C104.4 33.0846 105.189 32.0226 106.199 31.1353C107.209 30.2479 108.417 29.5588 109.824 29.0679C111.23 28.577 112.783 28.3315 114.482 28.3315C116.248 28.3315 117.819 28.5675 119.198 29.0396C120.576 29.5116 121.737 30.1865 122.681 31.0645C123.625 31.9424 124.343 33.0091 124.833 34.2646C125.324 35.5107 125.57 36.9173 125.57 38.4844V38.9233H104.825C104.929 40.1317 105.231 41.222 105.731 42.1943C106.232 43.1667 106.94 43.9927 107.855 44.6724C108.781 45.3521 109.913 45.876 111.254 46.2441C112.604 46.6029 114.176 46.7822 115.969 46.7822C116.734 46.7822 117.508 46.7303 118.292 46.6265C119.075 46.5226 119.826 46.3857 120.543 46.2158C121.26 46.0365 121.917 45.8382 122.511 45.6211C123.106 45.3945 123.592 45.1632 123.97 44.9272V46.9805ZM123.828 37.3799C123.762 36.3887 123.54 35.4447 123.163 34.5479C122.785 33.6416 122.219 32.8439 121.463 32.1548C120.718 31.4657 119.764 30.9181 118.603 30.5122C117.451 30.1063 116.068 29.9033 114.454 29.9033C112.934 29.9033 111.603 30.1063 110.461 30.5122C109.319 30.9181 108.351 31.4657 107.558 32.1548C106.765 32.8345 106.142 33.6274 105.689 34.5337C105.236 35.4305 104.948 36.3792 104.825 37.3799H123.828ZM130.752 48V28.5439H132.522V48H130.752ZM159.03 46.4565C158.351 46.7397 157.676 46.9993 157.005 47.2354C156.345 47.4714 155.655 47.6743 154.938 47.8442C154.221 48.0142 153.465 48.1463 152.672 48.2407C151.879 48.3351 151.016 48.3823 150.081 48.3823C148.929 48.3823 147.82 48.2879 146.753 48.0991C145.696 47.9103 144.71 47.6271 143.794 47.2495C142.878 46.8719 142.048 46.4046 141.302 45.8477C140.556 45.2812 139.914 44.6252 139.376 43.8794C138.847 43.1336 138.437 42.2935 138.144 41.3589C137.861 40.4243 137.719 39.4001 137.719 38.2861C137.719 37.1722 137.861 36.1479 138.144 35.2134C138.437 34.2788 138.847 33.4386 139.376 32.6929C139.914 31.9471 140.556 31.2957 141.302 30.7388C142.048 30.1724 142.878 29.7004 143.794 29.3228C144.71 28.9451 145.696 28.6619 146.753 28.4731C147.811 28.2843 148.92 28.1899 150.081 28.1899C151.016 28.1899 151.879 28.2371 152.672 28.3315C153.465 28.4259 154.221 28.5581 154.938 28.728C155.655 28.8979 156.345 29.1009 157.005 29.3369C157.676 29.5635 158.351 29.8184 159.03 30.1016V32.2256C158.492 31.8857 157.916 31.5648 157.303 31.2627C156.689 30.9606 156.024 30.6963 155.306 30.4697C154.598 30.2432 153.838 30.0638 153.026 29.9316C152.215 29.7995 151.346 29.7334 150.421 29.7334C148.552 29.7334 146.933 29.9364 145.564 30.3423C144.195 30.7482 143.062 31.3241 142.166 32.0698C141.278 32.8062 140.617 33.703 140.183 34.7603C139.758 35.8081 139.546 36.9834 139.546 38.2861C139.546 39.5889 139.758 40.7642 140.183 41.812C140.617 42.8599 141.278 43.7567 142.166 44.5024C143.062 45.2388 144.195 45.8099 145.564 46.2158C146.933 46.6123 148.552 46.8105 150.421 46.8105C151.346 46.8105 152.219 46.7445 153.041 46.6123C153.871 46.4801 154.645 46.3008 155.363 46.0742C156.09 45.8477 156.755 45.5881 157.359 45.2954C157.973 44.9933 158.53 44.6771 159.03 44.3467V46.4565ZM183.485 48V38.5693H166.054V48H164.284V28.5439H166.054V36.9268H183.485V28.5439H185.255V48H183.485ZM42.0815 78V76.5557L56.1851 60.2007H42.4639V58.5439H58.9321V59.4927L44.4038 76.3433H59.2295V78H42.0815ZM84.0098 76.9805C83.2168 77.2259 82.4805 77.4383 81.8008 77.6177C81.1211 77.7876 80.4508 77.9245 79.79 78.0283C79.1292 78.1416 78.4543 78.2218 77.7651 78.269C77.0854 78.3257 76.335 78.354 75.5137 78.354C73.6068 78.354 71.884 78.1227 70.3452 77.6602C68.8065 77.1976 67.4943 76.5368 66.4087 75.6777C65.3325 74.8092 64.5018 73.7614 63.9165 72.5342C63.3312 71.307 63.0386 69.9287 63.0386 68.3994C63.0386 66.9173 63.3171 65.5579 63.874 64.3213C64.4404 63.0846 65.2287 62.0226 66.2388 61.1353C67.2489 60.2479 68.4572 59.5588 69.8638 59.0679C71.2703 58.577 72.8232 58.3315 74.5225 58.3315C76.2878 58.3315 77.8595 58.5675 79.2378 59.0396C80.616 59.5116 81.7772 60.1865 82.7212 61.0645C83.6652 61.9424 84.3826 63.0091 84.8735 64.2646C85.3644 65.5107 85.6099 66.9173 85.6099 68.4844V68.9233H64.8652C64.9691 70.1317 65.2712 71.222 65.7715 72.1943C66.2718 73.1667 66.9798 73.9927 67.8955 74.6724C68.8206 75.3521 69.9535 75.876 71.2939 76.2441C72.6439 76.6029 74.2157 76.7822 76.0093 76.7822C76.7739 76.7822 77.548 76.7303 78.3315 76.6265C79.1151 76.5226 79.8656 76.3857 80.583 76.2158C81.3005 76.0365 81.9565 75.8382 82.5513 75.6211C83.146 75.3945 83.6322 75.1632 84.0098 74.9272V76.9805ZM83.8682 67.3799C83.8021 66.3887 83.5802 65.4447 83.2026 64.5479C82.825 63.6416 82.2586 62.8439 81.5034 62.1548C80.7576 61.4657 79.8042 60.9181 78.6431 60.5122C77.4914 60.1063 76.1084 59.9033 74.4941 59.9033C72.9743 59.9033 71.6432 60.1063 70.501 60.5122C69.3587 60.9181 68.3911 61.4657 67.5981 62.1548C66.8052 62.8345 66.1821 63.6274 65.729 64.5337C65.2759 65.4305 64.988 66.3792 64.8652 67.3799H83.8682ZM90.7925 78V58.5439H92.5625V78H90.7925ZM107.006 60.1582V78H105.25V60.1582H96.3999V58.5439H115.856V60.1582H107.006Z" fill="white"/>
<g filter="url(#filter0_d)">
<path d="M161.117 60.0191L161.511 55.3152L179.691 71.712L161.117 76.2901V60.0191Z" fill="#478589" stroke="black" stroke-width="1.5"/>
<path d="M147.347 71.123L160.449 55.7458L160.733 76.3062L147.347 71.123Z" fill="#478589" stroke="black" stroke-width="1.5"/>
<path d="M150.217 86.2789L160.417 77.1467L175.126 86.3596L187.826 95.1646H141.281L150.217 86.2789Z" fill="#478589" stroke="black" stroke-width="1.5"/>
<path d="M190.053 95.0135L162.186 76.977L213.997 65.0514L203.297 79.3879L196.938 87.4358L190.053 95.0135Z" fill="#478589" stroke="black" stroke-width="1.5"/>
<path d="M131.28 78.9195L124.297 63.0497L159.438 76.8845L139.722 94.7693L131.28 78.9195Z" fill="#478589" stroke="black" stroke-width="1.5"/>
<path d="M174.582 66.48L214.773 64.6168" stroke="black" stroke-width="1.5"/>
<path d="M151.297 65.8589L123.546 62.443" stroke="black" stroke-width="1.5"/>
</g>
<path d="M174.901 66.7905L214.773 64.3062L180.961 72.0696L174.901 66.7905Z" fill="#1F2C2E"/>
<path d="M146.512 71.4485L123.334 62.4429L151.159 66.1287L146.512 71.4485Z" fill="#1F2C2E"/>
<defs>
<filter id="filter0_d" x="118.877" y="53.7416" width="100.944" height="50.2475" filterUnits="userSpaceOnUse" color-interpolation-filters="sRGB">
<feFlood flood-opacity="0" result="BackgroundImageFix"/>
<feColorMatrix in="SourceAlpha" type="matrix" values="0 0 0 0 0 0 0 0 0 0 0 0 0 0 0 0 0 0 127 0"/>
<feOffset dy="4"/>
<feGaussianBlur stdDeviation="2"/>
<feColorMatrix type="matrix" values="0 0 0 0 0 0 0 0 0 0 0 0 0 0 0 0 0 0 0.25 0"/>
<feBlend mode="normal" in2="BackgroundImageFix" result="effect1_dropShadow"/>
<feBlend mode="normal" in="SourceGraphic" in2="effect1_dropShadow" result="shape"/>
</filter>
</defs>
</svg>
